/* XPM */
static char *result[] = {
/* columns rows colors chars-per-pixel */
"16 16 11 1 ",
"  c #491913",
". c #651E16",
"X c #7D3615",
"o c #513327",
"O c #7F5C4D",
"+ c #A14215",
"@ c #C2531E",
"# c #DA6731",
"$ c #A48477",
"% c #C6AB9F",
"& c None",
/* pixels */
"&&&&&&&&&&&&&&&&",
"&&&&&&++XXX&&&&&",
"&&&&&++##@  &&&&",
"&&&&&+####@ &&&&",
"&&&&++#%%#+  &&&",
"&&&&+##%%#X. &&&",
"&&&++####@..  &&",
"&&&+##%##+... &&",
"&&&+%####X..Oo&&",
"&&&O%%##@..OOo&&",
"&&&OO%%$$OOOoo&&",
"&&&&OOOOO  oo&&&",
"&&&&&&O$$ &&&&&&",
"&&&&&&O$$ &&&&&&",
"&&&&&&&$$&&&&&&&",
"&&&&&&&&&&&&&&&&"
};
