/* XPM */
static char *result[] = {
/* columns rows colors chars-per-pixel */
"32 32 9 1 ",
"  c #6E4B2C",
". c #332520",
"X c #141412",
"o c #523D2A",
"O c #281818",
"+ c #5C8EA5",
"@ c #3B535E",
"# c #8AC6E0",
"$ c white",
/* pixels */
"  .                          .  ",
"  .                          .  ",
"...XXXXXXXXXXXXXXXXXXXXXXXXXX...",
"  XXXXXXXXXXXXXXXXXXXXXXXXXXXXoo",
"  XXOOOOXOOOOOOXOOOOOOXOOOOOOXoo",
"ooXXOOOOXOOOOOOXOOOOOOXOOOOOOXoo",
"  XXOO..X......X.....OX......Xoo",
"ooXXOO.OX......O....OOX......Xoo",
"++@++O..X......O.....OX......Xoo",
"++@++O.OX......O....OOX......Xoo",
"++@++O..X......O.....OX......X++",
"..XXXX..X......O......X......X++",
"ooXXOO..O......O.....OX......@##",
"ooXXOO..O......O.....OO...+@++##",
"ooXXOO..X......O......O...+@++##",
"ooXXOO..O......O.....OO...+XXX##",
"ooXXOO..O......O.....OO...+XXX##",
"ooXXOO..O......O......O...+@++##",
"ooXXOO..O......O.....OO...+@++##",
"ooXXOO..O......X......O....OO@##",
"ooXXOO..O.....OX......O....OOX++",
"++@++O..O......X......O......X++",
"++@++O..O.....OX......O......X..",
"++@++O..O......X......O......Xoo",
"..XXXX..O.....OX......O......Xoo",
"ooXXOO..O......X......X......Xoo",
"ooXXOO..X.....OX......X......Xoo",
"ooXXOO..XOOOOOOX......XOOOOOOXoo",
"...XXXXXXXXXXXXXXXXXXXXXXXXXX...",
"  .         o o ooooooooooooo.oo",
"  .         o o ooooooooooooo.oo",
"................................"
};
