/* XPM */
static char *result[] = {
/* columns rows colors chars-per-pixel */
"32 32 11 1 ",
"  c #317105",
". c #337504",
"X c #357B05",
"o c #306D05",
"O c #337803",
"+ c #196F30",
"@ c #1A7231",
"# c #1B7735",
"$ c #1D7C37",
"% c #1E7F38",
"& c white",
/* pixels */
" ..  .XXXXo..OO  ..  .XXXXo..OO ",
"OOOO XXXXoo.....OOOO XXXXoo.OO..",
" OOOOXXX  ...... OOOOXXX  ......",
"  OOOOO XXXXo...  OOOOO XXXX+...",
"OO.OOO.OOXXoo..OOO.OOO.OOXX+++.@",
"OOO.O.OOOO  ..@@OOO.O+OOOO+++@@@",
" OOO.....  ....@@OOO++++OOOO@@@@",
"..........XXXX@@@@@+++@OOOO@@@@@",
".........OXXX@@@#####+@@@@++@@@@",
"....XXXX.OOO@@++####++@#....@@@@",
"...  XXXOOOOOOO###OOOO#....@@@+@",
"....  XOOO+OOO####@OOOO...oOOO+@",
"O..OOO OO++OO++$$@@@OOO..oOOO@@$",
"  . OOO+O+@O@@$$@@##@OO.@OOO@@@$",
" ....OOO+@@#$$$@@#####O@@@+++@$@",
"....@@+++@@###$$#######@@@####$$",
"o....@@@@@...$$@@##@@#%%%%+##$$@",
"....@@@@@...@@##$$$$@%%%%++#####",
"...++@   ..@..##@$$$$%%%@@######",
"O.++@@@  .@..@##@@$$$$$@%%%%+###",
".OOOO@@@ @@.@@#$$$#$$$#$$%%++##$",
"OOOOoo@@@@@@@##@$$$#$#$$$$@@###@",
".OOoo@OOOO@#####@$$$#####@@#####",
".....OOOO@@@+#############%%%%@#",
".OOO.OOOo@@@@+@@#########$%%%++#",
"ooOOOOO XXXX@@#@####%%%%#$$$@@##",
".ooOOO OOXX@@#+@###@@%%%$$$$$$$@",
"..  O+OOOO@@#++@####@@%$$$#$$$@@",
"O..+++++OOO@+@@$$##$$$@$$##$$@$$",
".oooo+@OOO@@@@$$@@#@$$$#$##$#$$$",
"oooo++@@@@@#@$$@@####$$$####$$$@",
"ooo++@@@@@@###$$##############$$"
};
