/* XPM */
static char *result[] = {
/* columns rows colors chars-per-pixel */
"32 32 6 1 ",
"  c #355612",
". c #526710",
"X c #7F7913",
"o c #9E8E14",
"O c #B9A617",
"+ c None",
/* pixels */
"++++++++++++++++++++++++++++++++",
"++++++++++++++++++++++++++++++++",
"++++++++++++++++++++++++++++++++",
"++++++++++++++++++++++...+++++++",
"++++++++++   ++++++++..OX+++++++",
"++++++++++ X  ++++++..oOX+++++++",
"++++++++++ XX  ++....oOOX+++++++",
"++++++++++ XXX  ..ooooOOX     ++",
"+++...++++ XXX. .oooooOOX...  ++",
"+++.O..+++ X... .ooooOOOX..  +++",
"+++.OO.... .... XoooXOOOX.  ++++",
"+++.OOOOOoo.....XXXXXOOO.  +++++",
"+++.OOOOOoooo..XXXXooOOX       +",
"+++.OOOoXXXooX.XXXXoooX ..XXXX  ",
"+++..OOOooXXXX..XXXooX ...XXXXX ",
"    ..OOoooXXXX.XXXoX  ....XX   ",
"     ..ooooXXXX.XXX.      ..  ++",
"+      .... XX.. XX...   ..  +++",
"++    ..XXXX  .. .....XX    ++++",
"+++  ..oooXX  .. .....XXX. +++++",
"++++..ooooX..    ..XXX.XX..+++++",
"+++..ooooX...... . XXXXXXX..++++",
"+++.ooooooXXX .. . .XXXXXXX..+++",
"+++.o  oooXXX .. . ..XXXXXXX.+++",
"+++..+  oooX  .. . +.........+++",
"+++++++      +..   +++++++++++++",
"++++++++++++++..  ++++++++++++++",
"++++++++++++++..++++++++++++++++",
"++++++++++++++++++++++++++++++++",
"++++++++++++++++++++++++++++++++",
"++++++++++++++++++++++++++++++++",
"++++++++++++++++++++++++++++++++"
};
